<?xml version="1.0" encoding="utf-8"?>
<!-- Generator: Adobe Illustrator 26.1.0, SVG Export Plug-In . SVG Version: 6.00 Build 0)  -->
<svg version="1.1" id="Layer_1" xmlns="http://www.w3.org/2000/svg" xmlns:xlink="http://www.w3.org/1999/xlink" x="0px" y="0px"
	 viewBox="0 0 242 30" style="enable-background:new 0 0 242 30;" xml:space="preserve">
<style type="text/css">
	.st0{fill:#FFFFFF;}
</style>
<g>
	<path class="st0" d="M9.51,0.66c1.21,0,2.3,0.21,3.28,0.64c0.97,0.43,1.8,1.03,2.49,1.82c0.69,0.78,1.22,1.73,1.6,2.83
		c0.38,1.1,0.57,2.34,0.57,3.72c0,1.33-0.19,2.55-0.57,3.65c-0.38,1.1-0.91,2.05-1.6,2.85c-0.69,0.8-1.53,1.41-2.51,1.85
		c-0.99,0.44-2.08,0.66-3.29,0.66H7.94V28H1V0.66h8.47H9.51z M9.47,1.51H1.85v25.63h5.23v-9.33h2.42c1.07,0,2.04-0.2,2.92-0.59
		c0.88-0.39,1.63-0.95,2.24-1.67c0.62-0.72,1.09-1.58,1.42-2.58c0.33-1,0.5-2.1,0.5-3.31c0-1.23-0.17-2.36-0.5-3.36
		c-0.33-1.01-0.81-1.87-1.42-2.58c-0.62-0.71-1.36-1.26-2.24-1.64c-0.88-0.38-1.85-0.57-2.92-0.57H9.47z"/>
	<path class="st0" d="M28.86,21.02H24.3L21.95,28H14.3l8.01-27.34h8.62L38.94,28h-7.65L28.86,21.02z M31.89,27.15h5.91
		c-1.26-4.34-2.52-8.62-3.77-12.82c-1.26-4.2-2.52-8.47-3.77-12.82h-7.26l-7.55,25.63h5.95l2.35-6.98h5.73L31.89,27.15z"/>
	<path class="st0" d="M60.15,0.66V28h-6.76l-6.41-11.75V28h-7.19V0.66h6.8l6.37,11.75V0.66H60.15z M53.82,14.3l-0.71,0.18
		L46.02,1.51h-5.38v25.63h5.48V14.33l0.71-0.18l7.12,13h5.34V1.51h-5.48V14.3z"/>
	<path class="st0" d="M80.95,14.33c0,1.83-0.21,3.57-0.62,5.23c-0.42,1.66-1.1,3.12-2.06,4.36c-0.96,1.25-2.21,2.24-3.76,2.97
		c-1.54,0.74-3.44,1.1-5.7,1.1h-0.78h-5.77V0.66h5.77c2.14,0,4.01,0.34,5.62,1.03c1.61,0.69,2.96,1.64,4.04,2.87
		c1.08,1.22,1.89,2.67,2.44,4.34C80.68,10.58,80.95,12.39,80.95,14.33z M80.09,14.33c0-1.83-0.26-3.52-0.77-5.09
		c-0.51-1.57-1.27-2.92-2.28-4.06s-2.27-2.03-3.77-2.69c-1.51-0.65-3.26-0.98-5.25-0.98h-4.91v25.63h4.91h0.78
		c2.09,0,3.85-0.34,5.29-1.03c1.44-0.69,2.6-1.62,3.49-2.79c0.89-1.17,1.53-2.53,1.92-4.08C79.9,17.7,80.09,16.06,80.09,14.33z"/>
	<path class="st0" d="M93.97,21.02h-4.56L87.07,28h-7.65l8.01-27.34h8.62L104.05,28h-7.65L93.97,21.02z M97,27.15h5.91
		c-1.26-4.34-2.52-8.62-3.77-12.82c-1.26-4.2-2.52-8.47-3.77-12.82H88.1l-7.55,25.63h5.95l2.35-6.98h5.73L97,27.15z"/>
	<path class="st0" d="M113.38,0.66c1.21,0,2.3,0.21,3.28,0.64c0.97,0.43,1.8,1.03,2.49,1.82c0.69,0.78,1.22,1.73,1.6,2.83
		c0.38,1.1,0.57,2.34,0.57,3.72c0,1.33-0.19,2.55-0.57,3.65c-0.38,1.1-0.91,2.05-1.6,2.85c-0.69,0.8-1.53,1.41-2.51,1.85
		c-0.99,0.44-2.08,0.66-3.29,0.66h-1.53V28h-6.94V0.66h8.47H113.38z M113.34,1.51h-7.62v25.63h5.23v-9.33h2.42
		c1.07,0,2.04-0.2,2.92-0.59c0.88-0.39,1.63-0.95,2.24-1.67c0.62-0.72,1.09-1.58,1.42-2.58c0.33-1,0.5-2.1,0.5-3.31
		c0-1.23-0.17-2.36-0.5-3.36c-0.33-1.01-0.81-1.87-1.42-2.58c-0.62-0.71-1.36-1.26-2.24-1.64c-0.88-0.38-1.85-0.57-2.92-0.57H113.34
		z"/>
	<path class="st0" d="M132.32,28l-2.92-6.98V28h-6.83V0.66h8.51c1.59,0,2.92,0.24,3.99,0.73c1.07,0.49,1.92,1.14,2.56,1.96
		c0.64,0.82,1.1,1.77,1.37,2.85c0.27,1.08,0.41,2.21,0.41,3.4c0,1.09-0.17,2.08-0.5,2.96c-0.33,0.88-0.74,1.64-1.23,2.28
		c-0.49,0.64-1,1.17-1.53,1.58c-0.53,0.42-1.01,0.71-1.44,0.87c0.88,1.71,1.8,3.5,2.76,5.36c0.96,1.86,1.87,3.65,2.72,5.36H132.32z
		 M133.38,16.57c0.31,0,0.75-0.15,1.33-0.46c0.58-0.31,1.16-0.76,1.73-1.35c0.57-0.59,1.06-1.32,1.48-2.19
		c0.42-0.87,0.62-1.86,0.62-2.97c0-1.09-0.12-2.12-0.36-3.1c-0.24-0.97-0.65-1.83-1.23-2.56c-0.58-0.74-1.35-1.32-2.31-1.76
		c-0.96-0.44-2.17-0.66-3.61-0.66h-7.62v25.63h5.13c0-1.38,0.01-2.78,0.04-4.2c0.02-1.42,0.04-2.81,0.04-4.17l0.75-0.14l3.56,8.51
		h5.84L133.38,16.57z"/>
	<path class="st0" d="M161.26,17.04c0,1.33-0.21,2.68-0.64,4.06c-0.43,1.38-1.12,2.58-2.06,3.6c-1.02,1.07-2.19,1.89-3.51,2.47
		c-1.32,0.58-2.7,0.87-4.15,0.87c-1.42,0-2.79-0.29-4.09-0.85s-2.48-1.39-3.52-2.46c-0.97-1.04-1.66-2.22-2.06-3.53
		c-0.4-1.3-0.62-2.69-0.64-4.17v-6.19c0-1.21,0.23-2.43,0.69-3.65c0.46-1.22,1.13-2.3,2.01-3.22c1.04-1.07,2.21-1.89,3.51-2.46
		c1.29-0.57,2.68-0.85,4.15-0.85c1.45,0,2.83,0.28,4.15,0.85s2.47,1.39,3.47,2.46c0.9,0.93,1.57,1.98,2.01,3.17
		c0.44,1.19,0.67,2.42,0.69,3.7V17.04z M160.41,10.84c-0.02-1.16-0.24-2.29-0.64-3.38c-0.4-1.09-1.02-2.06-1.85-2.92
		c-0.93-1-1.99-1.75-3.19-2.26c-1.2-0.51-2.47-0.77-3.83-0.77c-1.35,0-2.62,0.26-3.81,0.78c-1.19,0.52-2.24,1.27-3.17,2.24
		c-0.81,0.85-1.42,1.84-1.85,2.95c-0.43,1.12-0.64,2.23-0.64,3.35v6.19c0.02,1.35,0.22,2.63,0.59,3.84c0.37,1.21,1,2.3,1.9,3.28
		c0.93,0.97,1.99,1.72,3.19,2.24c1.2,0.52,2.47,0.78,3.83,0.78c1.35,0,2.63-0.26,3.83-0.78c1.2-0.52,2.25-1.28,3.15-2.28
		c0.9-0.95,1.54-2.06,1.92-3.33c0.38-1.27,0.57-2.52,0.57-3.76V10.84z"/>
	<path class="st0" d="M179.88,19.49c0,1.42-0.23,2.67-0.69,3.72c-0.46,1.06-1.09,1.94-1.87,2.65s-1.7,1.25-2.74,1.6
		c-1.04,0.36-2.16,0.53-3.35,0.53c-1.19,0-2.3-0.18-3.35-0.53c-1.04-0.36-1.96-0.9-2.74-1.62c-0.78-0.72-1.4-1.63-1.85-2.71
		c-0.45-1.08-0.68-2.34-0.68-3.79v-3.06h6.94V19c0,0.5,0.16,0.93,0.48,1.28c0.32,0.36,0.72,0.53,1.19,0.53
		c0.47,0,0.88-0.18,1.21-0.53c0.33-0.36,0.5-0.78,0.5-1.28V0.66h6.94V19.49z M173.79,1.51V19c0,0.76-0.24,1.39-0.73,1.9
		c-0.49,0.51-1.1,0.77-1.83,0.77c-0.74,0-1.34-0.25-1.82-0.77c-0.48-0.51-0.71-1.14-0.71-1.9v-1.85h-5.23v2.21
		c0,1.31,0.2,2.44,0.61,3.42c0.4,0.97,0.96,1.79,1.67,2.44c0.71,0.65,1.54,1.14,2.47,1.46s1.94,0.48,3.01,0.48s2.07-0.16,3.01-0.48
		s1.76-0.8,2.47-1.44s1.28-1.44,1.69-2.39c0.42-0.95,0.62-2.06,0.62-3.35V1.51H173.79z"/>
	<path class="st0" d="M189.32,7.5v3.42h7.55v6.84h-7.55v3.42h10.25V28h-17.09V0.66h17.09V7.5H189.32z M198.71,1.51h-15.38v25.63
		h15.38v-5.13h-10.25v-5.13h7.55v-5.13h-7.55V6.64h10.25V1.51z"/>
	<path class="st0" d="M211.5,21.27c0.9,0.07,1.67-0.2,2.31-0.82s1.15-1.38,1.53-2.28l5.95,3.31c-0.21,0.47-0.54,1.08-0.98,1.82
		c-0.44,0.74-1.04,1.45-1.8,2.15s-1.72,1.31-2.88,1.82s-2.6,0.77-4.31,0.77c-1.88,0-3.45-0.3-4.74-0.89
		c-1.28-0.59-2.32-1.39-3.12-2.39s-1.38-2.15-1.76-3.47c-0.38-1.32-0.61-2.69-0.68-4.11v-5.52c0.02-1.35,0.26-2.69,0.69-4.01
		c0.44-1.32,1.09-2.49,1.94-3.52c0.85-1.03,1.93-1.87,3.22-2.51c1.29-0.64,2.79-0.96,4.5-0.96c1.5,0,2.79,0.22,3.9,0.66
		c1.1,0.44,2.05,1.01,2.83,1.71c0.78,0.7,1.42,1.49,1.92,2.37c0.5,0.88,0.89,1.76,1.17,2.63l-5.91,3.31
		c-0.14-0.45-0.33-0.91-0.57-1.37c-0.24-0.46-0.53-0.88-0.87-1.26c-0.34-0.38-0.72-0.68-1.12-0.91c-0.4-0.23-0.83-0.33-1.28-0.3
		c-1.07,0.1-1.93,0.53-2.6,1.32c-0.66,0.78-1,1.77-1,2.96v5.16c0,1.19,0.34,2.18,1.01,2.99C209.55,20.73,210.43,21.18,211.5,21.27z
		 M211.42,22.13c-1.33-0.09-2.4-0.63-3.2-1.6s-1.21-2.17-1.21-3.6v-5.16c0-1.42,0.4-2.61,1.19-3.56c0.79-0.95,1.86-1.47,3.19-1.57
		c0.5-0.02,0.97,0.07,1.42,0.27c0.45,0.2,0.87,0.47,1.25,0.8c0.38,0.33,0.72,0.71,1.01,1.14s0.54,0.85,0.73,1.28l4.42-2.46
		c-0.26-0.76-0.62-1.51-1.07-2.24c-0.45-0.74-1.03-1.39-1.74-1.98s-1.56-1.05-2.55-1.41c-0.98-0.36-2.15-0.53-3.51-0.53
		c-1.57,0-2.94,0.29-4.11,0.87c-1.17,0.58-2.15,1.35-2.94,2.31c-0.78,0.96-1.38,2.05-1.78,3.26s-0.62,2.44-0.64,3.7v5.45
		c0.12,1.26,0.37,2.49,0.75,3.68c0.38,1.2,0.94,2.27,1.69,3.22c0.75,0.95,1.7,1.72,2.85,2.3c1.15,0.58,2.54,0.87,4.18,0.87
		c1.45,0,2.68-0.2,3.7-0.59s1.87-0.87,2.54-1.42c0.68-0.56,1.22-1.14,1.62-1.76s0.71-1.15,0.93-1.6c-0.78-0.45-1.51-0.85-2.17-1.21
		c-0.66-0.36-1.4-0.76-2.21-1.21c-0.4,0.83-0.96,1.51-1.67,2.05C213.38,21.97,212.49,22.2,211.42,22.13z"/>
	<path class="st0" d="M241.61,7.5h-6.02V28h-6.84V7.5h-6.02V0.66h18.87V7.5z M223.6,1.51v5.13h6.02v20.51h5.13V6.64h6.02V1.51H223.6
		z"/>
</g>
</svg>
