<?xml version="1.0" encoding="UTF-8" ?>
<!DOCTYPE svg PUBLIC "-//W3C//DTD SVG 1.1//EN" "http://www.w3.org/Graphics/SVG/1.1/DTD/svg11.dtd">
<svg width="1034pt" height="365pt" viewBox="0 0 1034 365" version="1.1" xmlns="http://www.w3.org/2000/svg">
<g id="#ffffffff">
<path fill="#ffffff" opacity="1.00" d=" M 0.75 42.00 C 28.51 41.99 56.26 42.01 84.02 41.99 C 98.98 41.75 114.11 45.95 126.46 54.49 C 141.35 64.64 151.25 80.86 156.00 98.03 C 160.72 115.52 161.12 134.10 157.80 151.88 C 154.34 168.98 146.42 185.60 133.46 197.53 C 120.90 209.08 104.00 215.49 87.00 216.00 C 80.67 216.01 74.33 215.99 68.00 216.00 C 68.00 246.00 68.00 276.00 68.00 306.00 C 45.58 306.00 23.17 306.00 0.75 306.00 C 0.75 218.00 0.75 130.00 0.75 42.00 M 9.25 50.01 C 9.25 132.67 9.25 215.33 9.25 297.99 C 26.00 298.01 42.75 298.00 59.50 298.00 C 59.50 268.00 59.51 238.01 59.49 208.01 C 69.68 207.91 79.87 208.26 90.04 207.57 C 100.48 206.65 110.77 203.36 119.58 197.63 C 133.87 188.50 143.29 173.23 147.78 157.11 C 152.40 140.16 152.55 122.08 148.90 104.93 C 145.09 87.21 135.43 70.05 119.81 60.22 C 108.69 53.10 95.39 50.01 82.28 50.08 C 57.94 49.89 33.59 50.05 9.25 50.01 Z" />
<path fill="#ffffff" opacity="1.00" d=" M 220.97 42.00 C 248.83 42.00 276.69 41.99 304.55 42.01 C 330.34 130.01 356.10 218.02 381.96 306.00 C 357.15 305.95 332.34 306.10 307.54 305.93 C 299.92 283.57 291.98 261.32 284.26 239.00 C 269.68 239.01 255.10 238.98 240.52 239.02 C 233.05 261.37 225.36 283.65 217.89 306.00 C 193.11 306.00 168.33 306.00 143.55 306.00 C 169.37 218.01 195.15 130.00 220.97 42.00 M 227.84 50.00 C 203.50 132.66 179.21 215.33 154.91 297.99 C 173.94 298.01 192.98 297.99 212.02 298.00 C 219.49 275.70 227.20 253.47 234.58 231.14 C 253.21 230.84 271.85 231.05 290.49 231.03 C 298.19 253.38 306.08 275.66 313.81 298.00 C 332.73 297.99 351.66 298.01 370.58 297.99 C 346.81 215.18 321.45 132.84 297.70 50.03 C 274.41 49.97 251.12 50.02 227.84 50.00 Z" />
<path fill="#ffffff" opacity="1.00" d=" M 389.00 42.00 C 411.03 42.00 433.07 42.00 455.10 42.00 C 475.58 79.69 496.06 117.39 516.49 155.11 C 516.51 117.41 516.49 79.71 516.50 42.00 C 539.67 42.00 562.83 42.00 586.00 42.00 C 586.00 130.00 586.00 218.00 586.00 306.00 C 564.13 306.00 542.25 306.00 520.38 306.00 C 499.87 268.33 479.34 230.67 458.76 193.04 C 458.74 230.69 458.75 268.34 458.76 305.99 C 435.51 306.01 412.25 306.00 389.00 306.00 C 389.00 218.00 389.00 130.00 389.00 42.00 M 397.50 50.00 C 397.50 132.67 397.50 215.33 397.50 298.00 C 415.08 298.00 432.66 298.00 450.25 298.00 C 450.23 256.70 450.27 215.40 450.23 174.10 C 452.62 173.46 455.02 172.86 457.42 172.27 C 480.37 214.17 503.39 256.05 526.27 297.99 C 543.34 298.01 560.42 297.99 577.50 298.00 C 577.50 215.33 577.50 132.67 577.50 50.00 C 559.92 50.00 542.33 50.00 524.75 50.00 C 524.75 91.22 524.75 132.43 524.75 173.65 C 522.41 174.21 520.07 174.80 517.73 175.37 C 494.91 133.57 472.04 91.80 449.21 50.00 C 431.98 50.00 414.74 50.00 397.50 50.00 Z" />
<path fill="#ffffff" opacity="1.00" d=" M 608.00 42.00 C 623.68 42.00 639.36 42.00 655.04 42.00 C 663.95 42.05 672.90 41.69 681.77 42.80 C 704.41 44.96 726.66 53.19 744.46 67.48 C 757.87 78.14 768.29 92.28 775.38 107.82 C 783.40 125.52 787.36 144.88 788.34 164.23 C 789.25 185.70 787.32 207.38 781.64 228.14 C 776.43 247.03 766.57 264.88 752.10 278.25 C 738.44 290.76 721.31 299.47 703.15 303.10 C 692.93 305.20 682.47 306.19 672.04 306.00 C 650.69 306.00 629.35 306.00 608.00 306.00 C 608.00 218.00 608.00 130.00 608.00 42.00 M 616.25 50.01 C 616.25 132.67 616.26 215.33 616.24 297.99 C 636.49 297.89 656.75 298.26 676.99 297.74 C 695.82 297.25 714.98 293.14 731.09 283.02 C 749.79 272.02 763.33 253.69 770.68 233.48 C 776.99 215.72 779.70 196.79 780.01 177.99 C 780.53 156.57 777.32 134.87 769.03 115.03 C 761.86 98.00 750.44 82.58 735.41 71.68 C 717.72 58.55 695.94 51.66 674.05 50.45 C 654.80 49.64 635.51 50.13 616.25 50.01 Z" />
<path fill="#ffffff" opacity="1.00" d=" M 860.97 42.00 C 888.83 42.00 916.69 41.99 944.55 42.01 C 970.37 129.98 996.04 218.01 1021.98 305.94 C 997.25 306.05 972.52 306.01 947.79 305.96 C 939.67 283.78 932.13 261.30 924.26 239.00 C 909.68 239.02 895.10 238.97 880.52 239.02 C 873.06 261.38 865.35 283.65 857.89 306.00 C 833.11 306.00 808.33 306.00 783.55 306.00 C 809.37 218.01 835.15 130.00 860.97 42.00 M 867.83 50.00 C 843.50 132.66 819.21 215.33 794.91 297.99 C 813.94 298.01 832.98 297.99 852.02 298.00 C 859.58 275.66 867.11 253.31 874.74 230.99 C 893.33 231.04 911.92 230.93 930.51 231.05 C 938.17 253.40 946.09 275.67 953.81 298.00 C 972.73 297.99 991.66 298.01 1010.59 297.99 C 986.81 215.18 961.44 132.85 937.71 50.03 C 914.42 49.96 891.13 50.02 867.83 50.00 Z" />
</g>
</svg>
